<svg xmlns="http://www.w3.org/2000/svg" viewBox="0 0 800 800" width="800" height="800" style="width: 100%; height: 100%; transform: translate3d(0,0,0);" preserveAspectRatio="xMidYMid meet"><defs><clipPath id="__lottie_element_2"><rect width="800" height="800" x="0" y="0"></rect></clipPath></defs><g clip-path="url(#__lottie_element_2)"><g style="display: none;"><g><path stroke-linecap="round" stroke-linejoin="miter" fill-opacity="0" stroke-miterlimit="10"></path></g><g><path stroke-linecap="butt" stroke-linejoin="miter" fill-opacity="0" stroke-miterlimit="10"></path></g><g><path></path></g><g><path stroke-linecap="butt" stroke-linejoin="miter" fill-opacity="0" stroke-miterlimit="10"></path></g><g><path></path></g></g><g style="display: none;"><g><path></path></g><g><path stroke-linecap="round" stroke-linejoin="miter" fill-opacity="0" stroke-miterlimit="10"></path></g><g><path stroke-linecap="round" stroke-linejoin="miter" fill-opacity="0" stroke-miterlimit="10"></path></g></g><g style="display: block;" transform="matrix(1.4984300136566162,0,0,1.4984300136566162,-409.1522216796875,-409.1522216796875)" opacity="1"><g opacity="1" transform="matrix(1,0,0,1,540,420.4620056152344)"><path stroke-linecap="round" stroke-linejoin="miter" fill-opacity="0" stroke-miterlimit="10" stroke="rgb(124,138,153)" stroke-opacity="1" stroke-width="42" d=" M241.07200622558594,109.96199798583984 C241.07200622558594,109.96199798583984 0,-109.96199798583984 0,-109.96199798583984 C0,-109.96199798583984 -241.0709991455078,109.96199798583984 -241.0709991455078,109.96199798583984"></path></g><g opacity="1" transform="matrix(1,0,0,1,0,0)"><path stroke-linecap="butt" stroke-linejoin="miter" fill-opacity="0" stroke-miterlimit="10" stroke="rgb(124,138,153)" stroke-opacity="1" stroke-width="42" d=" M726.5960083007812,490.0069885253906 C726.5960083007812,490.0069885253906 726.5960083007812,562.0349731445312 726.5960083007812,562.0349731445312"></path></g><g opacity="1" transform="matrix(1,0,0,0,726.5960083007812,561.5)"><path fill="rgb(124,138,153)" fill-opacity="1" d=" M21.000999450683594,6.926000118255615 C21.000999450683594,6.926000118255615 21.000999450683594,-6.925000190734863 21.000999450683594,-6.925000190734863 C21.000999450683594,-6.925000190734863 -21.000999450683594,-6.925000190734863 -21.000999450683594,-6.925000190734863 C-6.581999778747559,-3.7720000743865967 7.478000164031982,0.8659999966621399 21.000999450683594,6.926000118255615z"></path></g><g opacity="1" transform="matrix(1,0,0,1,457.9930114746094,632.2550048828125)"><path stroke-linecap="butt" stroke-linejoin="miter" fill-opacity="0" stroke-miterlimit="10" stroke="rgb(124,138,153)" stroke-opacity="1" stroke-width="42" d=" M104.58899688720703,142.2469940185547 C104.58899688720703,142.2469940185547 -49.125999450683594,142.2469940185547 -49.125999450683594,142.2469940185547 C-79.63099670410156,142.2469940185547 -104.58899688720703,117.29000091552734 -104.58899688720703,86.78500366210938 C-104.58899688720703,86.78500366210938 -104.58899688720703,-142.2469940185547 -104.58899688720703,-142.2469940185547"></path></g><g opacity="1" transform="matrix(0,0,0,1,560,774.4920043945312)"><path fill="rgb(124,138,153)" fill-opacity="1" d=" M21.003999710083008,21.007999420166016 C21.003999710083008,21.007999420166016 -21.003999710083008,-21.007999420166016 -21.003999710083008,-21.007999420166016 C-21.003999710083008,-21.007999420166016 -21.003999710083008,21.007999420166016 -21.003999710083008,21.007999420166016 C-21.003999710083008,21.007999420166016 21.003999710083008,21.007999420166016 21.003999710083008,21.007999420166016z"></path></g></g><g style="display: block;" transform="matrix(1.4984300136566162,0,0,1.4984300136566162,-409.1522216796875,-409.1522216796875)" opacity="1"><g opacity="1" transform="matrix(1,0,0,1,659.333984375,766.0330200195312)"><path fill="rgb(47,158,255)" fill-opacity="1" d=" M19.966999053955078,0 C19.966999053955078,11.027000427246094 11.029000282287598,19.968000411987305 0,19.968000411987305 C-11.027000427246094,19.968000411987305 -19.966999053955078,11.027000427246094 -19.966999053955078,0 C-19.966999053955078,-11.027999877929688 -11.027000427246094,-19.968000411987305 0,-19.968000411987305 C11.029000282287598,-19.968000411987305 19.966999053955078,-11.027999877929688 19.966999053955078,0z"></path></g><g opacity="1" transform="matrix(1,0,0,1,659.4910278320312,702.1069946289062)"><path stroke-linecap="round" stroke-linejoin="miter" fill-opacity="0" stroke-miterlimit="10" stroke="rgb(47,158,255)" stroke-opacity="1" stroke-width="42" d=" M-68.68099975585938,18.04800033569336 C-53.88100051879883,-4.013000011444092 -28.716999053955078,-18.535999298095703 -0.15700000524520874,-18.535999298095703 C28.61199951171875,-18.535999298095703 53.92599868774414,-3.7950000762939453 68.68099975585938,18.535999298095703"></path></g><g opacity="1" transform="matrix(1,0,0,1,659.6309814453125,639.0139770507812)"><path stroke-linecap="round" stroke-linejoin="miter" fill-opacity="0" stroke-miterlimit="10" stroke="rgb(47,158,255)" stroke-opacity="1" stroke-width="42" d=" M119.36900329589844,28.183000564575195 C90.9020004272461,-6.244999885559082 47.8650016784668,-28.183000564575195 -0.296999990940094,-28.183000564575195 C-48.12799835205078,-28.183000564575195 -90.89900207519531,-6.540999889373779 -119.36799621582031,27.479000091552734"></path></g></g></g></svg>